<?xml version="1.0" encoding="UTF-8" standalone="no"?>
<!-- Created with Inkscape (http://www.inkscape.org/) -->

<svg
   xmlns:dc="http://purl.org/dc/elements/1.1/"
   xmlns:cc="http://creativecommons.org/ns#"
   xmlns:rdf="http://www.w3.org/1999/02/22-rdf-syntax-ns#"
   xmlns:svg="http://www.w3.org/2000/svg"
   xmlns="http://www.w3.org/2000/svg"
   xmlns:sodipodi="http://sodipodi.sourceforge.net/DTD/sodipodi-0.dtd"
   xmlns:inkscape="http://www.inkscape.org/namespaces/inkscape"
   width="600"
   height="600"
   viewBox="0 0 158.75 158.75"
   version="1.1"
   id="svg8"
   inkscape:version="0.92.4 (5da689c313, 2019-01-14)"
   sodipodi:docname="logo.svg">
  <defs
     id="defs2" />
  <sodipodi:namedview
     id="base"
     pagecolor="#ffffff"
     bordercolor="#666666"
     borderopacity="1.0"
     inkscape:pageopacity="0"
     inkscape:pageshadow="2"
     inkscape:zoom="0.7"
     inkscape:cx="321.89713"
     inkscape:cy="578.57019"
     inkscape:document-units="mm"
     inkscape:current-layer="layer1"
     showgrid="false"
     units="px"
     inkscape:window-width="1920"
     inkscape:window-height="1017"
     inkscape:window-x="-8"
     inkscape:window-y="-8"
     inkscape:window-maximized="1"
     inkscape:pagecheckerboard="false" />
  <metadata
     id="metadata5">
    <rdf:RDF>
      <cc:Work
         rdf:about="">
        <dc:format>image/svg+xml</dc:format>
        <dc:type
           rdf:resource="http://purl.org/dc/dcmitype/StillImage" />
        <dc:title></dc:title>
      </cc:Work>
    </rdf:RDF>
  </metadata>
  <g
     inkscape:label="Layer 1"
     inkscape:groupmode="layer"
     id="layer1"
     transform="translate(0,-138.24998)">
    <rect
       id="rect3871"
       width="159.50595"
       height="159.12798"
       x="-0.75595242"
       y="138.24998"
       style="stroke-width:0.26458332;fill:#ececec" />
    <g
       style="fill:#1e1e1e;fill-opacity:1"
       class="companyNamea30e9404-926c-4749-a0da-1fd94698014f"
       id="g3727"
       transform="matrix(1.761142,0,0,1.5595636,16.73976,251.69605)">
      <path
         style="stroke:none"
         inkscape:connector-curvature="0"
         d="m 2.58,-1.21 v 0 q 0.27,-1.8 0.45,-4.2 0.17,-2.4 0.17,-4.86 v 0 q 0,-2.27 -0.13,-3.99 -0.14,-1.72 -0.49,-2.73 v 0 q -0.24,-0.59 -0.24,-1.06 v 0 q 0,-0.58 0.3,-0.93 0.29,-0.36 0.72,-0.36 v 0 q 0.59,0 1.02,0.75 0.42,0.74 0.68,1.99 0.25,1.25 0.37,2.87 0.12,1.62 0.12,3.38 v 0 q 0,2.46 -0.16,4.65 -0.16,2.18 -0.31,3.71 v 0 q 1.21,-0.12 2.67,-0.55 1.47,-0.43 2.76,-1.17 1.29,-0.74 2.15,-1.82 0.86,-1.07 0.86,-2.52 v 0 q 0,-1.05 -1.02,-1.79 -1.02,-0.75 -2.38,-0.75 v 0 q -0.28,0 -0.55,0.06 -0.27,0.06 -0.55,0.06 v 0 q -0.62,0 -1.01,-0.47 -0.39,-0.47 -0.39,-0.94 v 0 q 0,-0.27 0.58,-0.8 0.59,-0.52 1.29,-1.21 0.71,-0.68 1.29,-1.48 0.59,-0.8 0.59,-1.66 v 0 q 0,-0.27 -0.18,-0.45 -0.17,-0.18 -0.41,-0.25 -0.23,-0.08 -0.51,-0.1 -0.27,-0.02 -0.5,-0.02 v 0 q -0.67,0 -1.33,0.21 -0.67,0.22 -1.14,0.22 v 0 q -0.42,0 -0.66,-0.39 -0.23,-0.39 -0.23,-0.78 v 0 q 0,-0.47 0.37,-0.79 0.37,-0.31 0.92,-0.48 0.54,-0.18 1.17,-0.26 0.62,-0.08 1.17,-0.08 v 0 q 1.44,0 2.54,0.61 1.09,0.61 1.09,2.05 v 0 q 0,1.17 -0.72,2.54 -0.72,1.37 -1.7,2.3 v 0 q 0.86,0.12 1.7,0.51 0.84,0.39 1.5,1.02 0.67,0.62 1.08,1.4 0.41,0.79 0.41,1.68 v 0 q 0,1.88 -1,3.44 -0.99,1.56 -2.62,2.68 -1.62,1.11 -3.69,1.74 -2.07,0.62 -4.22,0.62 v 0 Q 3.55,0.39 3.05,0.1 2.54,-0.2 2.54,-0.98 v 0 q 0,-0.07 0.02,-0.11 0.02,-0.04 0.02,-0.12 z"
         id="path3717" />
      <path
         style="stroke:none"
         inkscape:connector-curvature="0"
         d="m 20.86,-11.41 v 0.28 q -0.08,0.9 -0.14,1.87 -0.06,0.98 -0.06,1.99 v 0 q 0,1.45 0.14,2.89 0.14,1.45 0.14,2.82 v 0 q 0,0.78 -0.37,1.17 Q 20.2,0 19.77,0 v 0 q -0.39,0 -0.65,-0.29 -0.25,-0.3 -0.29,-0.92 v 0 Q 18.71,-2.97 18.61,-4.43 18.52,-5.9 18.52,-7.38 v 0 q 0,-0.59 -0.02,-1.51 -0.02,-0.91 0.07,-1.75 0.1,-0.84 0.39,-1.45 0.3,-0.61 0.92,-0.61 v 0 q 0.39,0 0.69,0.36 0.29,0.35 0.29,0.93 z m -1.88,-8.63 v 0 q 0.16,-0.08 0.28,-0.08 v 0 q 0.15,0 0.29,0.04 0.14,0.04 0.22,0.04 v 0 q 0.19,-0.04 0.35,-0.06 0.15,-0.02 0.35,-0.02 v 0 q 1.29,0 1.93,0.86 0.65,0.86 0.65,1.84 v 0 q 0,0.47 -0.22,1.01 -0.21,0.55 -0.62,1 -0.41,0.45 -1.04,0.76 -0.62,0.31 -1.44,0.31 v 0 q -0.55,0 -1.02,-0.27 -0.47,-0.27 -0.82,-0.68 -0.35,-0.41 -0.55,-0.94 -0.19,-0.53 -0.19,-1.04 v 0 q 0,-0.78 0.53,-1.64 0.52,-0.86 1.3,-1.13 z m 0.94,2.03 v 0 h -0.31 q -0.2,0.08 -0.27,0.28 -0.08,0.19 -0.08,0.39 v 0 q 0,0.35 0.27,0.64 0.27,0.29 0.51,0.29 v 0 q 0.59,0 0.78,-0.37 0.2,-0.37 0.2,-0.68 v 0 q -0.2,-0.63 -0.79,-0.63 v 0 q -0.07,0 -0.31,0.08 z"
         id="path3719" />
      <path
         style="stroke:none"
         inkscape:connector-curvature="0"
         d="m 36.17,-0.04 v 0 q -3.83,-0.31 -5.62,-2.54 -1.8,-2.22 -1.8,-6.37 v 0 -1.64 q -1.52,0 -2.54,-0.29 -1.01,-0.29 -1.01,-1.27 v 0 q 0.07,-0.35 0.35,-0.6 0.27,-0.26 0.78,-0.26 v 0 q 0.47,0 1.13,0.12 0.67,0.12 1.45,0.12 v 0 q 0,-1.25 0.07,-2.56 0.08,-1.31 0.3,-2.37 0.21,-1.05 0.56,-1.73 0.36,-0.69 0.94,-0.69 v 0 q 0.43,0 0.78,0.37 0.35,0.37 0.35,1 v 0 q 0,0.98 -0.23,2.62 -0.23,1.64 -0.35,3.43 v 0 q 0.31,0.04 0.64,0.06 0.33,0.02 0.69,0.02 v 0 q 0.62,0 1.27,-0.04 0.64,-0.04 1.3,-0.11 v 0 q 0.55,0 0.9,0.31 0.35,0.31 0.35,0.7 v 0 q 0,0.55 -0.31,0.8 -0.31,0.26 -0.8,0.35 -0.49,0.1 -1.13,0.1 -0.65,0 -1.27,0 v 0 h -1.8 q -0.04,0.43 -0.04,0.82 0,0.39 0,0.78 v 0 q 0,1.41 0.26,2.52 0.25,1.12 0.88,1.98 0.62,0.86 1.64,1.4 1.01,0.55 2.5,0.78 v 0 q 0.43,0.08 0.62,0.35 0.2,0.28 0.2,0.63 v 0 q 0,0.47 -0.26,0.84 -0.25,0.37 -0.8,0.37 z"
         id="path3721" />
      <path
         style="stroke:none"
         inkscape:connector-curvature="0"
         d="m 41.17,-1.13 v 0 q 0.82,-0.98 1.72,-2.17 0.9,-1.19 1.72,-2.44 v 0 q -0.9,-0.82 -1.82,-1.72 -0.91,-0.9 -1.64,-1.72 -0.72,-0.82 -1.19,-1.52 -0.47,-0.71 -0.47,-1.14 v 0 q 0,-0.43 0.28,-0.68 0.27,-0.25 0.66,-0.25 v 0 q 0.39,0 0.94,0.43 0.54,0.43 1.23,1.15 0.68,0.72 1.54,1.64 0.86,0.92 1.88,1.85 v 0 q 0.54,-0.85 1.05,-1.79 0.51,-0.94 0.98,-1.7 0.47,-0.76 0.91,-1.27 0.45,-0.51 0.92,-0.51 v 0 q 0.43,0 0.69,0.31 0.25,0.32 0.25,0.75 v 0 q 0,0.39 -0.31,1.05 -0.31,0.66 -0.8,1.47 -0.49,0.8 -1.04,1.66 -0.54,0.85 -1.01,1.6 v 0 q 1.29,1.25 2.57,2.38 1.29,1.13 2.43,1.99 v 0 q 0.43,0.39 0.43,0.9 v 0 q 0,0.47 -0.41,0.8 -0.41,0.33 -0.84,0.33 v 0 q -0.36,0 -0.94,-0.39 -0.59,-0.39 -1.35,-1.01 -0.76,-0.63 -1.58,-1.41 -0.82,-0.78 -1.64,-1.56 v 0 q -0.59,0.9 -1.19,1.78 -0.61,0.87 -1.18,1.56 -0.56,0.68 -1.07,1.09 -0.51,0.41 -0.9,0.41 v 0 Q 41.56,0.74 41.23,0.45 40.9,0.16 40.9,-0.31 v 0 q 0,-0.39 0.27,-0.82 z"
         id="path3723" />
      <path
         style="stroke:none"
         inkscape:connector-curvature="0"
         d="m 59.61,-12.62 v 0 q 0.47,-0.19 0.7,-0.19 v 0 q 0.32,0 0.63,0.19 v 0 q 0.27,-0.04 0.6,-0.09 0.34,-0.06 0.57,-0.06 v 0 q 1.29,0 2.34,0.52 1.06,0.53 1.82,1.43 0.76,0.9 1.19,2.11 0.43,1.21 0.43,2.58 v 0 q 0,1.21 -0.45,2.32 -0.45,1.11 -1.25,1.97 -0.8,0.86 -1.85,1.37 -1.06,0.51 -2.23,0.51 v 0 q -1.45,0 -2.66,-0.47 -1.21,-0.47 -2.07,-1.29 -0.86,-0.82 -1.34,-1.95 -0.49,-1.13 -0.49,-2.46 v 0 q 0,-1.06 0.23,-2.17 0.24,-1.11 0.74,-2.05 0.51,-0.94 1.27,-1.56 0.76,-0.63 1.82,-0.71 z m 0.47,2.03 v 0 q -0.82,0.12 -1.25,0.61 -0.43,0.49 -0.65,1.15 -0.21,0.67 -0.25,1.39 -0.04,0.72 -0.04,1.31 v 0 q 0,0.7 0.24,1.42 0.23,0.73 0.76,1.29 0.52,0.57 1.31,0.92 0.78,0.35 1.91,0.35 v 0 q 0.86,0 1.54,-0.33 0.69,-0.33 1.14,-0.9 0.44,-0.57 0.68,-1.27 0.23,-0.7 0.23,-1.48 v 0 q 0,-2.03 -0.97,-3.34 -0.98,-1.31 -2.62,-1.43 v 0 h -0.74 q -0.32,0 -0.67,0.16 -0.35,0.15 -0.62,0.15 z"
         id="path3725" />
    </g>
    <g
       id="g3737"
       transform="matrix(0.36283516,0,0,0.33853616,42.647741,145.77121)"
       style="fill:#808080">
      <g
         id="g3735"
         style="fill:#808080">
        <path
           style="fill:#808080;fill-opacity:1"
           inkscape:connector-curvature="0"
           data-color="1"
           d="m 180.006,71.466 a 399.634,399.634 0 0 1 -1.048,-3.291 c -2.201,-6.975 -4.94,-15.655 -8.858,-21.04 -2.22,-3.049 -7.343,-2.888 -13.154,-2.197 -2.387,-1.927 -4.875,-3.731 -7.336,-5.502 -0.765,-0.55 -1.529,-1.1 -2.289,-1.653 -2.79,-2.03 -4.926,-6.737 -6.992,-11.29 -2.7,-5.95 -5.493,-12.103 -10.117,-13.604 -6.008,-1.952 -14.712,-1.725 -22.389,-1.526 -2.169,0.056 -4.217,0.109 -6.082,0.109 -3.218,0 -5.882,2.808 -8.324,6.513 a 11.425,11.425 0 0 0 -1.14,-0.062 c -3.106,0 -6.484,0.729 -9.866,1.791 -1.969,0.179 -3.868,0.502 -5.631,1.074 -3.461,1.124 -6.884,3.07 -10.163,5.273 L 66.55,26.09 c -1.199,0.497 -2.221,1.262 -3.118,2.209 a 266.38,266.38 0 0 0 -3.992,2.983 243.978,243.978 0 0 1 -3.65,2.729 c -3.115,2.267 -3.709,6.689 -3.939,11.303 -0.527,0.23 -1.056,0.461 -1.58,0.686 -4.602,1.974 -9.36,4.014 -12.366,8.145 -0.6,0.824 -1.163,1.675 -1.702,2.541 -5.187,1.456 -9.775,3.372 -11.338,7.142 -3.18,7.67 -3.609,19.753 -3.609,30.562 0,3.765 3.097,6.754 7.083,9.461 1.118,1.978 2.563,3.844 3.987,5.678 0.583,0.751 1.155,1.491 1.701,2.228 -0.976,3.52 -1.629,6.966 -0.357,10.886 1.394,4.295 2.763,7.992 4.565,11.606 0.226,2.55 0.839,4.964 2.329,7.011 1.811,2.489 3.08,5.905 4.423,9.521 1.927,5.189 3.92,10.553 7.745,13.337 1.315,0.957 2.851,1.674 4.506,2.253 1.822,1.771 3.561,3.992 5.372,6.311 3.59,4.598 7.302,9.353 12.137,10.922 1.713,0.556 3.575,0.773 5.525,0.773 3.517,0 7.318,-0.705 11.041,-1.395 3.55,-0.658 7.221,-1.339 10.429,-1.339 4.963,0 8.743,-4.243 12.398,-8.346 2.775,-3.114 5.645,-6.335 8.853,-7.377 8.174,-2.653 13.115,-4.386 19.625,-9.123 6.837,-4.976 10.741,-8.848 15.47,-15.346 3.521,-4.839 4.675,-9.123 6.01,-14.084 0.51,-1.898 1.039,-3.86 1.739,-6.016 0.922,-2.839 2.301,-5.289 3.635,-7.659 2.258,-4.011 4.391,-7.799 4.391,-13.17 0,-3.464 1.088,-7.003 2.14,-10.426 1.198,-3.9 2.425,-7.908 1.982,-11.762 1.768,-2.405 2.723,-4.707 2.021,-6.868 z M 101.74,12.773 c 1.882,0 3.939,-0.053 6.116,-0.11 2.395,-0.063 4.891,-0.127 7.369,-0.127 5.356,0 10.622,0.303 14.589,1.586 4.078,1.324 6.75,7.212 9.334,12.905 2.234,4.923 4.344,9.573 7.411,11.804 0.761,0.554 1.527,1.105 2.294,1.657 2.107,1.517 4.238,3.054 6.302,4.673 -0.495,0.064 -0.992,0.13 -1.492,0.196 -2.979,0.396 -6.007,0.796 -8.612,0.811 -5.489,-5.237 -12.039,-9.284 -21.047,-13.019 -0.89,-0.368 -1.777,-0.743 -2.666,-1.118 -2.314,-0.977 -4.655,-1.963 -7.047,-2.85 -0.336,-0.373 -0.671,-0.749 -1.003,-1.123 -3.475,-3.907 -7.068,-7.948 -11.758,-7.948 -0.59,0 -1.204,-0.029 -1.806,-0.045 -1.618,-0.849 -3.252,-1.505 -4.899,-1.855 2.132,-3.141 4.392,-5.437 6.915,-5.437 z m 69.15,71.382 c -4.32,4.303 -8.787,8.752 -8.787,12.808 0,2.712 0.229,5.005 0.451,7.223 0.137,1.37 0.262,2.679 0.323,3.982 -3.262,3.01 -6.563,6.122 -7.973,9.522 -1.451,3.501 -1.777,7.658 -2.092,11.678 -0.448,5.727 -0.878,11.135 -4.278,14.658 -0.549,0.267 -1.103,0.533 -1.663,0.798 -2.505,1.188 -5.094,2.417 -7.532,4.191 -5.113,3.72 -9.264,5.019 -15.009,6.816 -1.057,0.331 -2.161,0.677 -3.326,1.055 -2.387,0.775 -4.483,1.704 -6.509,2.602 -4.006,1.774 -7.789,3.451 -12.964,3.451 -3.567,0 -7.222,1.654 -10.769,3.308 -2.001,-1.712 -3.934,-3.833 -5.838,-5.925 -3.344,-3.673 -6.503,-7.144 -10.03,-8.607 -2.123,-0.88 -4.242,-1.64 -6.292,-2.375 -5.628,-2.019 -10.961,-3.934 -15.374,-7.96 1.532,0.008 3.102,-0.044 4.659,-0.095 4.399,-0.144 8.948,-0.295 12,0.971 1.945,0.806 3.918,1.789 5.827,2.74 5.156,2.569 10.489,5.225 16.565,5.225 2.127,0 4.307,0.111 6.617,0.229 2.333,0.119 4.694,0.239 7.013,0.239 4.101,0 8.069,-0.377 11.509,-1.803 4.579,-1.899 7.052,-6.957 9.444,-11.849 1.591,-3.253 3.235,-6.616 5.438,-8.818 3.503,-3.503 4.031,-7.701 4.591,-12.144 0.356,-2.83 0.725,-5.757 1.91,-8.614 1.179,-2.845 3.545,-5.203 5.834,-7.483 3.325,-3.313 6.764,-6.739 6.764,-11.783 0,-9.661 -1.133,-16.515 -3.789,-22.919 -3.66,-8.827 -7.506,-14.977 -12.471,-19.943 l -0.186,-0.186 c -1.754,-1.755 -3.527,-3.528 -5.362,-5.231 2.888,1.636 5.523,3.55 8.751,5.9 l 0.222,0.161 c 1.466,1.067 3.539,1.458 5.963,1.494 0.174,0.169 0.349,0.335 0.521,0.506 2.581,2.58 6.295,4.565 10.228,6.668 5.55,2.968 11.289,6.036 13.259,10.787 1.774,4.277 2.921,10.09 3.465,17.613 -0.369,0.371 -0.74,0.741 -1.11,1.11 z m 1.22,0.618 c 0.172,2.955 0.26,6.152 0.26,9.614 0,4.693 -4.055,8.743 -8.255,12.636 -0.07,-0.972 -0.167,-1.952 -0.268,-2.966 -0.219,-2.187 -0.445,-4.448 -0.445,-7.094 0,-3.516 4.272,-7.771 8.404,-11.887 z m -9.199,25.138 c -0.022,2.093 -0.289,4.233 -1.073,6.649 -1,3.081 -1.215,6.151 -1.423,9.121 -0.298,4.25 -0.579,8.263 -3.137,11.778 -1.685,2.315 -3.778,3.877 -6.078,5.182 2.165,-3.705 2.543,-8.5 2.909,-13.169 0.307,-3.919 0.624,-7.971 1.997,-11.281 1.191,-2.874 3.848,-5.53 6.805,-8.28 z m -17.393,37.005 c -6.314,5.747 -13.339,10.422 -19.71,13.064 -2.152,0.893 -4.431,2.007 -6.845,3.188 -6.432,3.146 -13.723,6.71 -20.326,6.71 -2.365,0 -4.597,-1.087 -6.744,-2.721 3.235,-1.5 6.541,-2.917 9.639,-2.917 5.45,0 9.356,-1.731 13.491,-3.563 1.996,-0.885 4.06,-1.8 6.383,-2.554 1.16,-0.377 2.26,-0.721 3.313,-1.05 5.642,-1.766 10.099,-3.16 15.385,-7.007 1.736,-1.262 3.578,-2.249 5.414,-3.15 z M 45.591,117.505 c 1.053,3.078 1.261,6.438 1.453,9.699 0.264,4.485 0.54,9.101 3.131,12.752 -2.933,-0.244 -5.486,-0.914 -7.115,-2.543 -2.718,-2.718 -0.753,-9.078 1.146,-15.227 0.483,-1.563 0.968,-3.14 1.385,-4.681 z m -0.479,-3.651 c -1.888,-2.358 -5.038,-4.408 -8.5,-6.475 0.491,-1.903 0.877,-3.894 0.957,-6.058 3.404,2.004 6.445,4.102 7.421,6.456 0.648,1.565 0.566,3.69 0.122,6.077 z m 3.228,13.273 c -0.22,-3.724 -0.447,-7.575 -1.916,-11.117 a 7.655,7.655 0 0 0 -0.302,-0.635 c 0.7,-3.116 0.949,-5.972 0.069,-8.096 -1.2,-2.893 -4.673,-5.185 -8.649,-7.479 -0.258,-3.79 -2.461,-7.395 -4.621,-10.886 -0.233,-0.376 -0.463,-0.75 -0.691,-1.122 0.586,-0.658 1.197,-1.315 1.815,-1.98 l 0.473,-0.511 c 1.036,5.025 5.369,9.464 9.579,13.772 2.689,2.753 5.23,5.354 6.718,7.925 0.402,0.697 0.802,1.396 1.203,2.097 3.909,6.84 7.952,13.912 14.883,17.922 l 1.385,0.805 c 6.865,3.995 15.409,8.967 23.993,8.967 6.216,0 11.24,-4.217 16.099,-8.296 2.414,-2.026 4.693,-3.939 7.063,-5.31 5.304,-3.068 7.236,-7.703 9.281,-12.609 0.94,-2.255 1.912,-4.587 3.257,-6.912 1.456,-2.516 3.473,-4.682 5.423,-6.776 3.567,-3.83 7.255,-7.791 7.255,-13.825 0,-2.756 0.346,-5.781 0.68,-8.708 0.764,-6.691 1.555,-13.611 -1.441,-18.788 -2.849,-4.925 -9.093,-6.717 -15.131,-8.449 -3.426,-0.983 -6.968,-2 -9.677,-3.567 -2.489,-1.441 -4.842,-3.583 -7.332,-5.852 -4.625,-4.213 -9.407,-8.57 -15.476,-8.57 -1.218,0 -2.516,0.013 -3.859,0.043 0.485,-0.812 0.969,-1.656 1.454,-2.518 2.934,0.305 5.94,0.601 8.763,0.601 4.498,0 8.727,0.948 12.796,2.297 1.044,0.681 2.071,1.292 3.085,1.793 2.079,2.201 4.267,4.144 6.731,4.945 a 49.02,49.02 0 0 1 3.823,1.411 c 3.158,2.566 6.087,5.49 8.963,8.367 l 0.187,0.187 c 4.838,4.838 8.598,10.859 12.189,19.521 2.586,6.236 3.69,12.942 3.69,22.421 0,4.504 -3.1,7.592 -6.382,10.862 -2.379,2.37 -4.839,4.821 -6.118,7.906 -1.252,3.019 -1.632,6.034 -1.999,8.95 -0.532,4.216 -1.033,8.198 -4.22,11.386 -2.356,2.356 -4.049,5.819 -5.687,9.168 -2.286,4.674 -4.649,9.508 -8.774,11.218 -5.116,2.122 -11.645,1.788 -17.96,1.468 -2.224,-0.114 -4.523,-0.231 -6.683,-0.231 -5.771,0 -10.964,-2.586 -15.986,-5.088 -1.928,-0.96 -3.922,-1.953 -5.908,-2.777 -2.266,-0.939 -5.179,-1.164 -8.246,-1.164 -1.415,0 -2.863,0.047 -4.294,0.094 -2.001,0.065 -4.024,0.129 -5.94,0.067 -3,-3.438 -3.278,-8.053 -3.565,-12.927 z M 30.627,87.654 c -1.476,1.725 -2.775,3.528 -3.555,5.495 -1.678,-1.517 -2.763,-3.146 -2.763,-4.956 0,-6.333 3.266,-13.573 6.146,-19.962 0.762,-1.687 1.48,-3.281 2.101,-4.777 0.185,-0.446 0.417,-0.866 0.678,-1.268 -2.303,4.884 -3.954,9.947 -5.377,14.33 -1.21,3.724 0.582,7.473 2.77,11.138 z m 0.71,1.172 0.478,0.774 c 1.901,3.071 3.849,6.232 4.349,9.412 l -0.766,-0.433 c -2.595,-1.464 -5.224,-2.954 -7.275,-4.557 0.635,-1.83 1.811,-3.525 3.214,-5.196 z m 8.898,-11.78 c 0.216,-0.665 0.442,-1.295 0.676,-1.905 1.828,-1.391 3.94,-2.705 6.025,-4.002 4.293,-2.671 8.349,-5.194 10.184,-8.366 1.897,-3.279 2.236,-8.115 2.564,-12.793 0.171,-2.437 0.348,-4.902 0.744,-7.142 0.16,-0.354 0.32,-0.709 0.476,-1.066 3.524,-2.11 7.278,-2.594 11.229,-3.09 2.873,-0.36 5.844,-0.732 8.946,-1.74 2.436,-0.79 4.521,-3.283 6.529,-6.452 1.635,-0.046 3.21,-0.063 4.671,-0.063 5.565,0 10.159,4.183 14.601,8.234 2.431,2.215 4.946,4.506 7.556,6.016 2.848,1.648 6.469,2.686 9.97,3.691 5.79,1.663 11.778,3.381 14.365,7.851 2.78,4.805 2.014,11.509 1.274,17.99 -0.338,2.962 -0.688,6.025 -0.688,8.855 0,5.522 -3.355,9.125 -6.907,12.939 -2,2.147 -4.067,4.367 -5.597,7.012 -1.388,2.397 -2.376,4.769 -3.332,7.062 -2.043,4.902 -3.808,9.135 -8.732,11.984 -2.467,1.427 -4.789,3.376 -7.247,5.439 -4.68,3.927 -9.52,7.989 -15.263,7.989 -8.234,0 -16.258,-4.67 -23.339,-8.79 l -1.388,-0.806 c -6.628,-3.835 -10.582,-10.752 -14.406,-17.442 -0.402,-0.703 -0.803,-1.405 -1.207,-2.102 -1.57,-2.713 -4.165,-5.371 -6.914,-8.184 -4.352,-4.455 -8.844,-9.053 -9.388,-14.091 1.964,-2.186 3.769,-4.474 4.598,-7.028 z m -4.565,5.019 c 0.32,-1.931 1.549,-3.66 3.269,-5.268 -0.637,1.859 -1.832,3.571 -3.269,5.268 z M 86.017,30.547 c -1.699,2.553 -3.463,4.551 -5.338,5.16 -2.985,0.97 -5.894,1.334 -8.707,1.687 -3.551,0.446 -6.949,0.878 -10.227,2.445 a 100.657,100.657 0 0 1 1.774,-3.919 6.212,6.212 0 0 1 1.072,-0.806 c 5.594,-3.237 14.01,-4.265 21.426,-4.567 z M 64.76,33.556 c 1.593,-2.773 3.502,-5.069 6.127,-6.157 2.679,-1.112 5.724,-1.474 8.921,-1.474 2.817,0 5.751,0.283 8.655,0.583 a 84.42,84.42 0 0 1 -1.593,2.705 c -7.443,0.251 -16.076,1.198 -22.11,4.343 z m 42.936,-8.229 c -1.839,-1.343 -3.701,-2.702 -5.584,-3.884 3.54,0.311 6.557,3.401 9.452,6.632 -1.256,-0.844 -2.545,-1.781 -3.868,-2.748 z m 10.567,7.768 a 36.67,36.67 0 0 1 3.016,1.804 c -1.036,-0.398 -2.04,-1.02 -3.016,-1.804 z m 3.314,0.443 c 0.642,0.271 1.284,0.542 1.928,0.809 8.257,3.424 14.402,7.104 19.549,11.74 -1.518,-0.144 -2.808,-0.492 -3.727,-1.16 l -0.222,-0.162 c -4.829,-3.515 -8.354,-6.075 -13.356,-8.191 a 47.858,47.858 0 0 0 -4.172,-3.036 z M 94.057,19.379 c 0.7,0.119 1.401,0.306 2.103,0.544 -0.603,-0.033 -1.19,-0.061 -1.81,-0.097 a 102.05,102.05 0 0 0 -0.552,-0.031 c 0.087,-0.139 0.173,-0.28 0.259,-0.416 z m 0.221,1.744 c 1.77,0.103 3.455,0.183 5.111,0.234 2.532,1.362 5.059,3.204 7.542,5.018 l 1.15,0.839 c -3.023,-0.769 -6.154,-1.258 -9.443,-1.258 -2.584,0 -5.351,-0.256 -8.074,-0.536 l 0.28,-0.503 c 0.723,-1.3 1.452,-2.606 2.192,-3.86 0.414,0.023 0.829,0.042 1.242,0.066 z m -1.999,-1.901 c 0.113,0 0.226,0.012 0.339,0.016 -0.098,0.158 -0.196,0.314 -0.293,0.474 -1.284,-0.07 -2.568,-0.123 -3.846,-0.155 1.304,-0.213 2.578,-0.335 3.8,-0.335 z M 64.304,29.274 a 100.32,100.32 0 0 1 2.947,-2.07 257.622,257.622 0 0 0 3.68,-1.581 c 3.609,-1.572 7.704,-3.354 11.768,-4.638 a 46.318,46.318 0 0 1 3.964,-0.158 c 1.617,0 3.264,0.069 4.912,0.153 a 200.15,200.15 0 0 0 -1.866,3.305 l -0.552,0.99 C 82.623,24.593 75.884,23.92 70.39,26.199 c -3.664,1.519 -5.991,4.982 -7.92,8.907 -1.55,1.498 -2.456,3.619 -3.024,6.047 -0.185,0.125 -0.371,0.248 -0.555,0.383 -0.222,0.161 -0.466,0.298 -0.695,0.451 0.359,-0.908 0.704,-1.83 1.046,-2.745 1.393,-3.733 2.824,-7.554 5.062,-9.968 z m -7.749,5.789 c 1.186,-0.863 2.412,-1.791 3.67,-2.743 l 0.813,-0.615 c -1.171,2.154 -2.102,4.636 -3.016,7.085 -0.548,1.468 -1.104,2.953 -1.711,4.357 a 44.743,44.743 0 0 1 -3.128,1.568 c 0.239,-4.154 0.838,-7.808 3.372,-9.652 z m -3.501,12.622 c 0.018,-0.505 0.037,-1.006 0.058,-1.504 0.761,-0.339 1.519,-0.69 2.266,-1.061 -0.692,1.345 -1.462,2.545 -2.36,3.488 z m -0.123,2.785 c 0.298,-0.249 0.588,-0.503 0.855,-0.77 1.445,-1.446 2.558,-3.435 3.529,-5.615 a 27.523,27.523 0 0 0 1.549,-0.957 c -1.26,2.709 -2.653,5.25 -4.445,7.042 a 9.25,9.25 0 0 1 -1.546,1.215 c 0.022,-0.304 0.041,-0.608 0.058,-0.915 z m -0.202,2.525 c 1.002,-0.553 1.882,-1.18 2.608,-1.905 1.283,-1.283 2.357,-2.893 3.32,-4.652 a 161.585,161.585 0 0 0 -0.268,3.45 c -0.317,4.53 -0.645,9.213 -2.392,12.233 -1.673,2.891 -5.595,5.33 -9.746,7.913 -1.475,0.917 -2.962,1.843 -4.363,2.802 1.716,-3.668 3.826,-6.477 6.327,-9.803 0.739,-0.982 1.511,-2.008 2.314,-3.112 1.328,-1.825 1.909,-4.273 2.2,-6.926 z m -1.222,-0.841 c -1.188,0.591 -2.543,1.1 -3.995,1.558 1.438,-0.672 2.818,-1.395 4.047,-2.22 a 28.16,28.16 0 0 1 -0.052,0.662 z m -12.551,2.754 c 2.796,-3.843 7.183,-5.724 11.827,-7.715 l 1.005,-0.432 -0.033,0.876 c -0.026,0.725 -0.056,1.452 -0.091,2.176 -2.223,1.707 -5.229,2.998 -8.162,4.247 -1.322,0.563 -2.655,1.133 -3.938,1.746 -0.491,0.122 -0.98,0.246 -1.467,0.371 0.285,-0.423 0.557,-0.853 0.859,-1.269 z m -2.737,4.299 c 1.137,-0.808 2.433,-1.518 3.8,-2.176 0.451,-0.112 0.903,-0.223 1.354,-0.333 3.638,-0.89 7.144,-1.751 9.959,-3.013 -0.297,2.132 -0.823,4.054 -1.854,5.47 -0.799,1.099 -1.567,2.119 -2.302,3.097 -2.994,3.981 -5.439,7.238 -7.348,12.081 -3.192,2.483 -5.544,5.258 -5.544,8.727 0,0.183 0.019,0.362 0.028,0.544 -0.4,0.439 -0.806,0.879 -1.219,1.323 -0.523,0.563 -1.048,1.129 -1.564,1.702 -1.989,-3.373 -3.448,-6.598 -2.436,-9.713 2.186,-6.732 4.203,-12.524 7.126,-17.709 z M 22.554,94.389 c 0,-10.68 0.417,-22.604 3.511,-30.064 1.228,-2.963 4.85,-4.684 9.15,-5.999 -1.701,1.251 -3.078,2.738 -3.863,4.631 -0.612,1.477 -1.327,3.062 -2.084,4.741 -2.934,6.508 -6.26,13.883 -6.26,20.496 0,2.41 1.456,4.45 3.622,6.292 a 9.891,9.891 0 0 0 -0.321,2.479 c 0,1.563 0.326,3.032 0.862,4.436 -2.712,-2.116 -4.617,-4.398 -4.617,-7.012 z m 5.055,2.575 c 0,-0.541 0.053,-1.068 0.149,-1.583 2.054,1.535 4.542,2.944 7,4.331 0.511,0.288 1.024,0.578 1.533,0.869 -0.006,2.173 -0.364,4.183 -0.843,6.109 l -0.747,-0.44 c -1.833,-1.079 -3.683,-2.169 -5.37,-3.298 -1.031,-1.89 -1.722,-3.867 -1.722,-5.988 z m 5.743,11.768 c -0.82,-1.056 -1.646,-2.123 -2.409,-3.213 1.02,0.625 2.062,1.24 3.101,1.852 l 1.059,0.625 a 144.682,144.682 0 0 1 -0.629,2.195 c -0.372,-0.489 -0.747,-0.976 -1.122,-1.459 z m 4.842,19.187 c -0.033,0.997 -0.065,2 -0.073,2.999 -1.181,-2.705 -2.192,-5.528 -3.215,-8.681 -1.038,-3.198 -0.654,-6.134 0.099,-9.104 1.034,1.515 1.904,3.042 2.429,4.66 0.997,3.07 0.877,6.657 0.76,10.126 z m 1.299,0.044 c 0.12,-3.581 0.245,-7.284 -0.823,-10.572 -0.673,-2.072 -1.873,-4.014 -3.222,-5.887 0.115,-0.402 0.232,-0.805 0.35,-1.211 0.155,-0.531 0.31,-1.068 0.462,-1.608 3.596,2.162 6.951,4.412 8.481,6.902 -0.477,1.999 -1.13,4.12 -1.777,6.216 -1.801,5.831 -3.504,11.378 -1.918,14.911 A 55.442,55.442 0 0 1 39.5,133.859 C 39.359,131.988 39.424,130 39.493,127.963 Z m 6.712,22.365 c -1.375,-3.702 -2.674,-7.199 -4.591,-9.834 a 9.82,9.82 0 0 1 -1.258,-2.382 63.796,63.796 0 0 0 3.135,4.725 c 1.943,2.67 3.132,6.033 4.281,9.285 1.376,3.896 2.813,7.885 5.558,10.813 -3.401,-2.595 -5.295,-7.68 -7.125,-12.607 z m 9.74,13.227 c -3.706,-2.697 -5.28,-7.152 -6.947,-11.869 -1.181,-3.341 -2.401,-6.795 -4.456,-9.618 a 62.95,62.95 0 0 1 -2.839,-4.248 c 0.136,0.177 0.275,0.352 0.437,0.513 2.14,2.139 5.471,2.831 9.18,3 0.061,0.064 0.116,0.131 0.179,0.195 4.769,4.769 10.548,6.842 16.666,9.037 2.035,0.73 4.139,1.485 6.232,2.353 3.259,1.351 6.323,4.718 9.566,8.281 1.794,1.971 3.613,3.963 5.509,5.648 -4.105,1.903 -7.983,3.521 -11.429,2.402 -2.865,-0.929 -6.177,-1.402 -9.683,-1.901 -3.595,-0.512 -7.26,-1.047 -10.407,-2.103 a 19.874,19.874 0 0 0 -2.008,-1.69 z m 116.619,-63.036 c 0,5.03 -2.052,8.674 -4.224,12.532 -1.365,2.426 -2.778,4.934 -3.739,7.895 -0.71,2.188 -1.243,4.167 -1.758,6.08 -1.302,4.836 -2.426,9.012 -5.806,13.656 -4.64,6.374 -8.471,10.175 -15.184,15.061 -6.35,4.622 -11.213,6.325 -19.261,8.938 -3.544,1.15 -6.532,4.505 -9.422,7.749 -3.465,3.888 -7.047,7.909 -11.428,7.909 -3.327,0 -7.059,0.692 -10.667,1.361 -5.623,1.043 -11.438,2.121 -15.926,0.664 -4.457,-1.447 -8.045,-6.042 -11.514,-10.485 -1.302,-1.667 -2.567,-3.284 -3.863,-4.737 2.675,0.676 5.564,1.089 8.405,1.494 3.449,0.492 6.707,0.955 9.465,1.851 a 8.975,8.975 0 0 0 2.791,0.426 c 3.285,0 6.746,-1.56 10.132,-3.139 2.504,2.018 5.155,3.406 8.072,3.406 6.903,0 14.338,-3.636 20.899,-6.842 2.395,-1.171 4.657,-2.277 6.772,-3.154 7.514,-3.116 15.906,-8.985 23.023,-16.102 3.401,-1.667 6.556,-3.502 8.998,-6.857 2.779,-3.817 3.072,-8.012 3.383,-12.453 0.202,-2.892 0.411,-5.882 1.362,-8.81 0.992,-3.055 1.212,-5.662 1.132,-8.249 3.37,-3.108 6.793,-6.297 8.444,-9.917 -0.05,0.574 -0.086,1.148 -0.086,1.723 z m -2.828,-35.582 c -2.148,-5.181 -8.096,-8.361 -13.847,-11.436 -3.642,-1.947 -7.081,-3.797 -9.512,-6.064 2.31,-0.111 4.852,-0.446 7.459,-0.792 a 270.14,270.14 0 0 1 2.719,-0.352 c 3.063,2.509 5.925,5.235 8.241,8.418 5.3,7.282 9.148,14.551 11.438,21.604 0.177,0.544 0.305,1.093 0.395,1.647 -0.966,1.257 -2.154,2.555 -3.426,3.863 -0.587,-7.123 -1.734,-12.708 -3.467,-16.888 z m 5.025,24.774 a 111.903,111.903 0 0 0 -1.097,3.735 c -0.017,-3.57 -0.126,-6.867 -0.331,-9.899 1.243,-1.253 2.425,-2.487 3.451,-3.697 0.036,3.143 -0.969,6.433 -2.023,9.861 z m 2.708,-13.795 c -2.332,-7.183 -6.243,-14.573 -11.624,-21.968 -2.148,-2.952 -4.726,-5.512 -7.493,-7.859 4.775,-0.496 9.037,-0.473 10.699,1.811 3.793,5.213 6.497,13.781 8.669,20.666 0.362,1.15 0.712,2.257 1.051,3.302 0.448,1.379 -0.07,2.962 -1.131,4.652 -0.054,-0.202 -0.106,-0.404 -0.171,-0.604 z"
           class="aLgOaV3zRcolors-0a30e9404-926c-4749-a0da-1fd94698014f"
           id="path3733" />
      </g>
    </g>
    <text
       xml:space="preserve"
       style="font-style:normal;font-weight:normal;font-size:15.56677914px;line-height:1.25;font-family:sans-serif;letter-spacing:0px;word-spacing:0px;fill:#000000;fill-opacity:1;stroke:none;stroke-width:0.38916945"
       x="51.019478"
       y="277.40363"
       id="text3869"><tspan
         sodipodi:role="line"
         id="tspan3867"
         x="51.019478"
         y="277.40363"
         style="font-style:normal;font-variant:normal;font-weight:normal;font-stretch:normal;font-family:'Times New Roman';-inkscape-font-specification:'Times New Roman, ';letter-spacing:0.79001409px;stroke-width:0.38916945"
         dx="0">/biːtʃəʊ/</tspan></text>
  </g>
  <style
     id="style3715">.aLgOaV3zRcolors-0a30e9404-926c-4749-a0da-1fd94698014f {fill:#9E9D9D;fill-opacity:1;}.companyNamea30e9404-926c-4749-a0da-1fd94698014f {fill:#1e1e1e;fill-opacity:1;}.texta30e9404-926c-4749-a0da-1fd94698014f {fill:#1e1e1e;fill-opacity:1;}</style>
</svg>
